{
    "accessors" : [
        {
            "bufferView" : 0,
            "componentType" : 5123,
            "count" : 1947,
            "max" : [
                628
            ],
            "min" : [
                0
            ],
            "type" : "SCALAR"
        },
        {
            "bufferView" : 1,
            "componentType" : 5126,
            "count" : 629,
            "max" : [
                32.24588394165039,
                49.09147262573242,
                32.2843132019043
            ],
            "min" : [
                -32.245887756347656,
                -0.09419822692871094,
                -32.24430465698242
            ],
            "type" : "VEC3"
        },
        {
            "bufferView" : 2,
            "componentType" : 5126,
            "count" : 629,
            "max" : [
                0.999969482421875,
                0.999786376953125,
                1.0
            ],
            "min" : [
                -0.9873958826065063,
                -1.0,
                -1.0
            ],
            "type" : "VEC3"
        },
        {
            "bufferView" : 3,
            "componentType" : 5126,
            "count" : 629,
            "max" : [
                0.49745944142341614,
                0.9947799481451511
            ],
            "min" : [
                0.004994940012693405,
                0.006205558776855469
            ],
            "type" : "VEC2"
        },
        {
            "bufferView" : 4,
            "componentType" : 5123,
            "count" : 629,
            "max" : [
                2,
                2,
                2,
                0
            ],
            "min" : [
                0,
                0,
                0,
                0
            ],
            "type" : "VEC4"
        },
        {
            "bufferView" : 5,
            "componentType" : 5126,
            "count" : 629,
            "max" : [
                1.000000238418579,
                1.0,
                0.07869690656661987,
                0.0
            ],
            "min" : [
                0.00021606311202049255,
                0.0,
                0.0,
                0.0
            ],
            "type" : "VEC4"
        },
        {
            "bufferView" : 6,
            "componentType" : 5126,
            "count" : 3,
            "max" : [
                4.4979331370598175e-09,
                0.0,
                -0.023101015016436577,
                0.0,
                -1.0097772618067324e-09,
                0.023101016879081726,
                4.413876776741338e-17,
                0.0,
                0.023101015016436577,
                1.009777372829035e-09,
                4.4979331370598175e-09,
                0.0,
                0.0,
                0.0,
                0.0,
                1.0
            ],
            "min" : [
                -1.0097774838513374e-09,
                0.0,
                -0.023101015016436577,
                0.0,
                -1.0097772618067324e-09,
                0.023101015016436577,
                -1.9661086573183464e-16,
                0.0,
                0.023101015016436577,
                1.0097772618067324e-09,
                -1.0097774838513374e-09,
                0.0,
                0.0,
                -0.904856264591217,
                0.0,
                1.0
            ],
            "type" : "MAT4"
        },
        {
            "bufferView" : 7,
            "componentType" : 5126,
            "count" : 3,
            "max" : [
                4.4979331370598175e-09,
                0.0,
                -0.023101015016436577,
                0.0,
                -1.0097772618067324e-09,
                0.023101016879081726,
                4.413876776741338e-17,
                0.0,
                0.023101015016436577,
                1.009777372829035e-09,
                4.4979331370598175e-09,
                0.0,
                0.0,
                0.0,
                0.0,
                1.0
            ],
            "min" : [
                -1.0097774838513374e-09,
                0.0,
                -0.023101015016436577,
                0.0,
                -1.0097772618067324e-09,
                0.023101015016436577,
                -1.9661086573183464e-16,
                0.0,
                0.023101015016436577,
                1.0097772618067324e-09,
                -1.0097774838513374e-09,
                0.0,
                0.0,
                -0.904856264591217,
                0.0,
                1.0
            ],
            "type" : "MAT4"
        },
        {
            "bufferView" : 8,
            "componentType" : 5126,
            "count" : 3,
            "max" : [
                4.4979331370598175e-09,
                0.0,
                -0.023101015016436577,
                0.0,
                -1.0097772618067324e-09,
                0.023101016879081726,
                4.413876776741338e-17,
                0.0,
                0.023101015016436577,
                1.009777372829035e-09,
                4.4979331370598175e-09,
                0.0,
                0.0,
                0.0,
                0.0,
                1.0
            ],
            "min" : [
                -1.0097774838513374e-09,
                0.0,
                -0.023101015016436577,
                0.0,
                -1.0097772618067324e-09,
                0.023101015016436577,
                -1.9661086573183464e-16,
                0.0,
                0.023101015016436577,
                1.0097772618067324e-09,
                -1.0097774838513374e-09,
                0.0,
                0.0,
                -0.904856264591217,
                0.0,
                1.0
            ],
            "type" : "MAT4"
        },
        {
            "bufferView" : 9,
            "componentType" : 5126,
            "count" : 50,
            "max" : [
                1.6333333333333333
            ],
            "min" : [
                0.0
            ],
            "type" : "SCALAR"
        },
        {
            "bufferView" : 10,
            "componentType" : 5126,
            "count" : 50,
            "max" : [
                0.0,
                1.584577091762185e-08,
                0.13132813572883606,
                0.9999957084655762
            ],
            "min" : [
                -3.3528295733580103e-16,
                -1.7645097827312384e-08,
                -0.11793620139360428,
                0.9913389682769775
            ],
            "type" : "VEC4"
        },
        {
            "bufferView" : 11,
            "componentType" : 5126,
            "count" : 50,
            "max" : [
                1.6333333333333333
            ],
            "min" : [
                0.0
            ],
            "type" : "SCALAR"
        },
        {
            "bufferView" : 12,
            "componentType" : 5126,
            "count" : 50,
            "max" : [
                1.3604648074760917e-08,
                1.3376399010667228e-07,
                0.10087105631828308,
                0.9999985098838806
            ],
            "min" : [
                -1.2024761630868852e-08,
                1.0504832204105696e-07,
                -0.11412406712770462,
                0.9934664964675903
            ],
            "type" : "VEC4"
        }
    ],
    "animations" : [
        {
            "channels" : [
                {
                    "sampler" : 0,
                    "target" : {
                        "node" : 3,
                        "path" : "rotation"
                    }
                },
                {
                    "sampler" : 1,
                    "target" : {
                        "node" : 4,
                        "path" : "rotation"
                    }
                }
            ],
            "name" : "pumpkin_happy",
            "samplers" : [
                {
                    "input" : 9,
                    "interpolation" : "LINEAR",
                    "output" : 10
                },
                {
                    "input" : 11,
                    "interpolation" : "LINEAR",
                    "output" : 12
                }
            ]
        }
    ],
    "asset" : {
        "generator" : "Khronos Blender glTF 2.0 exporter",
        "version" : "2.0"
    },
    "bufferViews" : [
        {
            "buffer" : 0,
            "byteLength" : 3894,
            "byteOffset" : 0,
            "target" : 34963
        },
        {
            "buffer" : 0,
            "byteLength" : 7548,
            "byteOffset" : 3896,
            "target" : 34962
        },
        {
            "buffer" : 0,
            "byteLength" : 7548,
            "byteOffset" : 11444,
            "target" : 34962
        },
        {
            "buffer" : 0,
            "byteLength" : 5032,
            "byteOffset" : 18992,
            "target" : 34962
        },
        {
            "buffer" : 0,
            "byteLength" : 5032,
            "byteOffset" : 24024,
            "target" : 34962
        },
        {
            "buffer" : 0,
            "byteLength" : 10064,
            "byteOffset" : 29056,
            "target" : 34962
        },
        {
            "buffer" : 0,
            "byteLength" : 192,
            "byteOffset" : 39120
        },
        {
            "buffer" : 0,
            "byteLength" : 192,
            "byteOffset" : 39312
        },
        {
            "buffer" : 0,
            "byteLength" : 192,
            "byteOffset" : 39504
        },
        {
            "buffer" : 0,
            "byteLength" : 200,
            "byteOffset" : 39696
        },
        {
            "buffer" : 0,
            "byteLength" : 800,
            "byteOffset" : 39896
        },
        {
            "buffer" : 0,
            "byteLength" : 200,
            "byteOffset" : 40696
        },
        {
            "buffer" : 0,
            "byteLength" : 800,
            "byteOffset" : 40896
        }
    ],
    "buffers" : [
        {
            "byteLength" : 41696,
            "uri" : "pumpkin_happy.bin"
        }
    ],
    "images" : [
        {
            "name" : "Pumpkins_HappyEvil",
            "uri" : "Pumpkins_HappyEvil.png"
        }
    ],
    "materials" : [
        {
            "doubleSided" : true,
            "emissiveFactor" : [
                0.5225215554237366,
                0.5225215554237366,
                0.5225215554237366
            ],
            "emissiveTexture" : {
                "index" : 0
            },
            "name" : "pumpkin_evil",
            "pbrMetallicRoughness" : {
                "baseColorTexture" : {
                    "index" : 0
                },
                "metallicFactor" : 0.0
            }
        }
    ],
    "meshes" : [
        {
            "name" : "pumpkin_happy",
            "primitives" : [
                {
                    "attributes" : {
                        "JOINTS_0" : 4,
                        "NORMAL" : 2,
                        "POSITION" : 1,
                        "TEXCOORD_0" : 3,
                        "WEIGHTS_0" : 5
                    },
                    "indices" : 0,
                    "material" : 0
                }
            ]
        }
    ],
    "nodes" : [
        {
            "children" : [
                1,
                2
            ],
            "name" : "Armature.001"
        },
        {
            "mesh" : 0,
            "name" : "pumpkin_happy",
            "rotation" : [
                -1.545430627913902e-08,
                0.7071068286895752,
                1.5454308055495858e-08,
                0.7071067690849304
            ],
            "scale" : [
                0.023101015016436577,
                0.023101015016436577,
                0.023101015016436577
            ],
            "skin" : 0
        },
        {
            "children" : [
                3
            ],
            "name" : "Armature.001_Bone"
        },
        {
            "children" : [
                4
            ],
            "name" : "Armature.001_Bone.001",
            "rotation" : [
                0.0,
                -1.7645097827312384e-08,
                0.13132813572883606,
                0.9913389682769775
            ],
            "translation" : [
                0.0,
                0.3711223006248474,
                0.0
            ]
        },
        {
            "name" : "Armature.001_Bone.002",
            "rotation" : [
                1.3604648074760917e-08,
                1.3376399010667228e-07,
                -0.11412406712770462,
                0.9934664964675903
            ],
            "scale" : [
                1.0,
                0.9999999403953552,
                1.0
            ],
            "translation" : [
                0.0,
                0.5337339043617249,
                0.0
            ]
        }
    ],
    "samplers" : [
        {}
    ],
    "scene" : 0,
    "scenes" : [
        {
            "name" : "Scene",
            "nodes" : [
                0
            ]
        }
    ],
    "skins" : [
        {
            "inverseBindMatrices" : 6,
            "joints" : [
                2,
                3,
                4
            ],
            "skeleton" : 0
        },
        {
            "inverseBindMatrices" : 7,
            "joints" : [
                2,
                3,
                4
            ],
            "skeleton" : 0
        },
        {
            "inverseBindMatrices" : 8,
            "joints" : [
                2,
                3,
                4
            ],
            "skeleton" : 0
        }
    ],
    "textures" : [
        {
            "sampler" : 0,
            "source" : 0
        }
    ]
}
