{
    "accessors" : [
        {
            "bufferView" : 0,
            "componentType" : 5121,
            "count" : 54,
            "max" : [
                39
            ],
            "min" : [
                0
            ],
            "type" : "SCALAR"
        },
        {
            "bufferView" : 1,
            "componentType" : 5126,
            "count" : 40,
            "max" : [
                3.7216432094573975,
                3.669346570968628,
                0.00819309987127781
            ],
            "min" : [
                -3.509420156478882,
                -2.856912612915039,
                -0.053253501653671265
            ],
            "type" : "VEC3"
        },
        {
            "bufferView" : 2,
            "componentType" : 5126,
            "count" : 40,
            "max" : [
                7.0382728914767864e-15,
                -0.0,
                1.0
            ],
            "min" : [
                -1.421203710272323e-09,
                -5.6155261773938037e-08,
                0.9999999403953552
            ],
            "type" : "VEC3"
        },
        {
            "bufferView" : 3,
            "componentType" : 5126,
            "count" : 40,
            "max" : [
                1.0,
                1.888795253535136e-07,
                1.4212024890269959e-09,
                1.0
            ],
            "min" : [
                1.0,
                -8.436264238298463e-07,
                -3.320552789979822e-14,
                1.0
            ],
            "type" : "VEC4"
        },
        {
            "bufferView" : 4,
            "componentType" : 5126,
            "count" : 40,
            "max" : [
                0.9999000430107117,
                0.9940548976883292
            ],
            "min" : [
                9.998494351748377e-05,
                0.08286505937576294
            ],
            "type" : "VEC2"
        }
    ],
    "asset" : {
        "generator" : "Khronos Blender glTF 2.0 exporter",
        "version" : "2.0"
    },
    "bufferViews" : [
        {
            "buffer" : 0,
            "byteLength" : 54,
            "byteOffset" : 0,
            "target" : 34963
        },
        {
            "buffer" : 0,
            "byteLength" : 480,
            "byteOffset" : 56,
            "target" : 34962
        },
        {
            "buffer" : 0,
            "byteLength" : 480,
            "byteOffset" : 536,
            "target" : 34962
        },
        {
            "buffer" : 0,
            "byteLength" : 640,
            "byteOffset" : 1016,
            "target" : 34962
        },
        {
            "buffer" : 0,
            "byteLength" : 320,
            "byteOffset" : 1656,
            "target" : 34962
        }
    ],
    "buffers" : [
        {
            "byteLength" : 1976,
            "uri" : "ui_credits.bin"
        }
    ],
    "images" : [
        {
            "name" : "ui_texture",
            "uri" : "ui_texture.png"
        }
    ],
    "materials" : [
        {
            "alphaMode" : "BLEND",
            "emissiveFactor" : [
                1.0,
                1.0,
                1.0
            ],
            "emissiveTexture" : {
                "index" : 0
            },
            "name" : "ui",
            "pbrMetallicRoughness" : {
                "baseColorTexture" : {
                    "index" : 0
                }
            }
        }
    ],
    "meshes" : [
        {
            "name" : "Plane.007",
            "primitives" : [
                {
                    "attributes" : {
                        "NORMAL" : 2,
                        "POSITION" : 1,
                        "TANGENT" : 3,
                        "TEXCOORD_0" : 4
                    },
                    "indices" : 0,
                    "material" : 0
                }
            ]
        }
    ],
    "nodes" : [
        {
            "mesh" : 0,
            "name" : "Plane.002",
            "translation" : [
                -0.10611146688461304,
                0.3183445632457733,
                0.027159661054611206
            ]
        }
    ],
    "samplers" : [
        {}
    ],
    "scene" : 0,
    "scenes" : [
        {
            "name" : "Scene",
            "nodes" : [
                0
            ]
        }
    ],
    "textures" : [
        {
            "sampler" : 0,
            "source" : 0
        }
    ]
}
