{
    "accessors" : [
        {
            "bufferView" : 0,
            "componentType" : 5121,
            "count" : 405,
            "max" : [
                204
            ],
            "min" : [
                0
            ],
            "type" : "SCALAR"
        },
        {
            "bufferView" : 1,
            "componentType" : 5126,
            "count" : 205,
            "max" : [
                13.14031982421875,
                10.598791122436523,
                11.926912307739258
            ],
            "min" : [
                -11.334884643554688,
                -3.2215516567230225,
                -10.723367691040039
            ],
            "type" : "VEC3"
        },
        {
            "bufferView" : 2,
            "componentType" : 5126,
            "count" : 205,
            "max" : [
                1.0,
                0.43259987235069275,
                0.9684438705444336
            ],
            "min" : [
                -0.9864802956581116,
                -0.5335856080055237,
                -0.9890077114105225
            ],
            "type" : "VEC3"
        },
        {
            "bufferView" : 3,
            "componentType" : 5126,
            "count" : 205,
            "max" : [
                1.0,
                1.0
            ],
            "min" : [
                0.0,
                0.00010031461715698242
            ],
            "type" : "VEC2"
        }
    ],
    "asset" : {
        "generator" : "Khronos Blender glTF 2.0 exporter",
        "version" : "2.0"
    },
    "bufferViews" : [
        {
            "buffer" : 0,
            "byteLength" : 405,
            "byteOffset" : 0,
            "target" : 34963
        },
        {
            "buffer" : 0,
            "byteLength" : 2460,
            "byteOffset" : 408,
            "target" : 34962
        },
        {
            "buffer" : 0,
            "byteLength" : 2460,
            "byteOffset" : 2868,
            "target" : 34962
        },
        {
            "buffer" : 0,
            "byteLength" : 1640,
            "byteOffset" : 5328,
            "target" : 34962
        }
    ],
    "buffers" : [
        {
            "byteLength" : 6968,
            "uri" : "village_trees_inner.bin"
        }
    ],
    "images" : [
        {
            "name" : "village_trees_03c",
            "uri" : "village_trees_03c.png"
        }
    ],
    "materials" : [
        {
            "alphaMode" : "BLEND",
            "name" : "trees",
            "pbrMetallicRoughness" : {
                "baseColorTexture" : {
                    "index" : 0
                },
                "metallicFactor" : 0.0
            }
        }
    ],
    "meshes" : [
        {
            "name" : "tree8.002",
            "primitives" : [
                {
                    "attributes" : {
                        "NORMAL" : 2,
                        "POSITION" : 1,
                        "TEXCOORD_0" : 3
                    },
                    "indices" : 0,
                    "material" : 0
                }
            ]
        }
    ],
    "nodes" : [
        {
            "mesh" : 0,
            "name" : "tree8.004",
            "rotation" : [
                -0.08819004148244858,
                0.8527020215988159,
                0.02790183201432228,
                0.5141431093215942
            ],
            "scale" : [
                1.3669236898422241,
                1.3669236898422241,
                1.3669236898422241
            ],
            "translation" : [
                -0.1700124442577362,
                -0.5357476472854614,
                -0.25936317443847656
            ]
        }
    ],
    "samplers" : [
        {}
    ],
    "scene" : 0,
    "scenes" : [
        {
            "name" : "Scene",
            "nodes" : [
                0
            ]
        }
    ],
    "textures" : [
        {
            "sampler" : 0,
            "source" : 0
        }
    ]
}
