{
    "accessors" : [
        {
            "bufferView" : 0,
            "componentType" : 5121,
            "count" : 240,
            "max" : [
                137
            ],
            "min" : [
                0
            ],
            "type" : "SCALAR"
        },
        {
            "bufferView" : 1,
            "componentType" : 5126,
            "count" : 138,
            "max" : [
                25.323829650878906,
                11.875336647033691,
                20.312416076660156
            ],
            "min" : [
                -20.40053367614746,
                -4.063439846038818,
                -20.084190368652344
            ],
            "type" : "VEC3"
        },
        {
            "bufferView" : 2,
            "componentType" : 5126,
            "count" : 138,
            "max" : [
                0.9916074275970459,
                0.19663752615451813,
                0.9975624084472656
            ],
            "min" : [
                -0.9916074275970459,
                -0.22784724831581116,
                -0.9840083122253418
            ],
            "type" : "VEC3"
        },
        {
            "bufferView" : 3,
            "componentType" : 5126,
            "count" : 138,
            "max" : [
                1.0,
                1.0
            ],
            "min" : [
                0.0,
                0.06331419944763184
            ],
            "type" : "VEC2"
        }
    ],
    "asset" : {
        "generator" : "Khronos Blender glTF 2.0 exporter",
        "version" : "2.0"
    },
    "bufferViews" : [
        {
            "buffer" : 0,
            "byteLength" : 240,
            "byteOffset" : 0,
            "target" : 34963
        },
        {
            "buffer" : 0,
            "byteLength" : 1656,
            "byteOffset" : 240,
            "target" : 34962
        },
        {
            "buffer" : 0,
            "byteLength" : 1656,
            "byteOffset" : 1896,
            "target" : 34962
        },
        {
            "buffer" : 0,
            "byteLength" : 1104,
            "byteOffset" : 3552,
            "target" : 34962
        }
    ],
    "buffers" : [
        {
            "byteLength" : 4656,
            "uri" : "village_trees_outer.bin"
        }
    ],
    "images" : [
        {
            "name" : "village_trees_03c",
            "uri" : "village_trees_03c.png"
        }
    ],
    "materials" : [
        {
            "alphaMode" : "BLEND",
            "name" : "trees",
            "pbrMetallicRoughness" : {
                "baseColorTexture" : {
                    "index" : 0
                },
                "metallicFactor" : 0.0
            }
        }
    ],
    "meshes" : [
        {
            "name" : "tree8",
            "primitives" : [
                {
                    "attributes" : {
                        "NORMAL" : 2,
                        "POSITION" : 1,
                        "TEXCOORD_0" : 3
                    },
                    "indices" : 0,
                    "material" : 0
                }
            ]
        }
    ],
    "nodes" : [
        {
            "mesh" : 0,
            "name" : "tree8.002",
            "rotation" : [
                -0.08819004148244858,
                0.8527020215988159,
                0.02790183201432228,
                0.5141431093215942
            ],
            "scale" : [
                1.3669236898422241,
                1.3669236898422241,
                1.3669236898422241
            ],
            "translation" : [
                4.76837158203125e-07,
                -3.725290298461914e-08,
                -3.814697265625e-06
            ]
        }
    ],
    "samplers" : [
        {}
    ],
    "scene" : 0,
    "scenes" : [
        {
            "name" : "Scene",
            "nodes" : [
                0
            ]
        }
    ],
    "textures" : [
        {
            "sampler" : 0,
            "source" : 0
        }
    ]
}
