{
    "accessors" : [
        {
            "bufferView" : 0,
            "componentType" : 5121,
            "count" : 357,
            "max" : [
                176
            ],
            "min" : [
                0
            ],
            "type" : "SCALAR"
        },
        {
            "bufferView" : 1,
            "componentType" : 5126,
            "count" : 177,
            "max" : [
                15.964347839355469,
                10.505295753479004,
                15.321544647216797
            ],
            "min" : [
                -12.889139175415039,
                -3.007676839828491,
                -13.434646606445312
            ],
            "type" : "VEC3"
        },
        {
            "bufferView" : 2,
            "componentType" : 5126,
            "count" : 177,
            "max" : [
                0.9925649166107178,
                0.4190496504306793,
                0.9952391386032104
            ],
            "min" : [
                -0.9776351451873779,
                -0.4992828071117401,
                -0.9743034243583679
            ],
            "type" : "VEC3"
        },
        {
            "bufferView" : 3,
            "componentType" : 5126,
            "count" : 177,
            "max" : [
                1.0,
                1.0
            ],
            "min" : [
                0.0,
                0.0037310123443603516
            ],
            "type" : "VEC2"
        }
    ],
    "asset" : {
        "generator" : "Khronos Blender glTF 2.0 exporter",
        "version" : "2.0"
    },
    "bufferViews" : [
        {
            "buffer" : 0,
            "byteLength" : 357,
            "byteOffset" : 0,
            "target" : 34963
        },
        {
            "buffer" : 0,
            "byteLength" : 2124,
            "byteOffset" : 360,
            "target" : 34962
        },
        {
            "buffer" : 0,
            "byteLength" : 2124,
            "byteOffset" : 2484,
            "target" : 34962
        },
        {
            "buffer" : 0,
            "byteLength" : 1416,
            "byteOffset" : 4608,
            "target" : 34962
        }
    ],
    "buffers" : [
        {
            "byteLength" : 6024,
            "uri" : "village_trees_middle.bin"
        }
    ],
    "images" : [
        {
            "name" : "village_trees_03c",
            "uri" : "village_trees_03c.png"
        }
    ],
    "materials" : [
        {
            "alphaMode" : "BLEND",
            "name" : "trees",
            "pbrMetallicRoughness" : {
                "baseColorTexture" : {
                    "index" : 0
                },
                "metallicFactor" : 0.0
            }
        }
    ],
    "meshes" : [
        {
            "name" : "tree8.003",
            "primitives" : [
                {
                    "attributes" : {
                        "NORMAL" : 2,
                        "POSITION" : 1,
                        "TEXCOORD_0" : 3
                    },
                    "indices" : 0,
                    "material" : 0
                }
            ]
        }
    ],
    "nodes" : [
        {
            "mesh" : 0,
            "name" : "tree8.001",
            "rotation" : [
                -0.08819004148244858,
                0.8527020215988159,
                0.02790183201432228,
                0.5141431093215942
            ],
            "scale" : [
                1.3669236898422241,
                1.3669236898422241,
                1.3669236898422241
            ],
            "translation" : [
                4.76837158203125e-07,
                -3.725290298461914e-08,
                -3.814697265625e-06
            ]
        }
    ],
    "samplers" : [
        {}
    ],
    "scene" : 0,
    "scenes" : [
        {
            "name" : "Scene",
            "nodes" : [
                0
            ]
        }
    ],
    "textures" : [
        {
            "sampler" : 0,
            "source" : 0
        }
    ]
}
