{
    "accessors" : [
        {
            "bufferView" : 0,
            "componentType" : 5123,
            "count" : 1932,
            "max" : [
                489
            ],
            "min" : [
                0
            ],
            "type" : "SCALAR"
        },
        {
            "bufferView" : 1,
            "componentType" : 5126,
            "count" : 490,
            "max" : [
                0.7321497797966003,
                1.4498705863952637,
                1.4103522300720215
            ],
            "min" : [
                -0.7363329529762268,
                -0.5548057556152344,
                -1.9769644737243652
            ],
            "type" : "VEC3"
        },
        {
            "bufferView" : 2,
            "componentType" : 5126,
            "count" : 490,
            "max" : [
                0.999969482421875,
                0.9998779296875,
                0.99981689453125
            ],
            "min" : [
                -0.9998779296875,
                -0.999847412109375,
                -0.99981689453125
            ],
            "type" : "VEC3"
        },
        {
            "bufferView" : 3,
            "componentType" : 5126,
            "count" : 490,
            "max" : [
                1.0,
                0.9751183986663818,
                0.9893268346786499,
                1.0
            ],
            "min" : [
                -0.9992725253105164,
                -0.9880647659301758,
                -0.9950982332229614,
                -1.0
            ],
            "type" : "VEC4"
        },
        {
            "bufferView" : 4,
            "componentType" : 5126,
            "count" : 490,
            "max" : [
                0.9860358834266663,
                1.0
            ],
            "min" : [
                0.0,
                0.020422816276550293
            ],
            "type" : "VEC2"
        },
        {
            "bufferView" : 5,
            "componentType" : 5123,
            "count" : 490,
            "max" : [
                0,
                0,
                0,
                0
            ],
            "min" : [
                0,
                0,
                0,
                0
            ],
            "type" : "VEC4"
        },
        {
            "bufferView" : 6,
            "componentType" : 5126,
            "count" : 490,
            "max" : [
                0.0,
                0.0,
                0.0,
                0.0
            ],
            "min" : [
                0.0,
                0.0,
                0.0,
                0.0
            ],
            "type" : "VEC4"
        },
        {
            "bufferView" : 7,
            "componentType" : 5126,
            "count" : 40,
            "max" : [
                1.625
            ],
            "min" : [
                0.0
            ],
            "type" : "SCALAR"
        },
        {
            "bufferView" : 8,
            "componentType" : 5126,
            "count" : 40,
            "max" : [
                -16.62497329711914,
                11.891040802001953,
                -1.991457223892212
            ],
            "min" : [
                -17.191818237304688,
                9.8270263671875,
                -2.471196413040161
            ],
            "type" : "VEC3"
        },
        {
            "bufferView" : 9,
            "componentType" : 5126,
            "count" : 160,
            "max" : [
                6.625
            ],
            "min" : [
                0.0
            ],
            "type" : "SCALAR"
        },
        {
            "bufferView" : 10,
            "componentType" : 5126,
            "count" : 480,
            "max" : [
                22.547893524169922,
                13.164398193359375,
                20.537343978881836
            ],
            "min" : [
                -21.0853214263916,
                -5.650474548339844,
                -23.146081924438477
            ],
            "type" : "VEC3"
        },
        {
            "bufferView" : 11,
            "componentType" : 5126,
            "count" : 160,
            "max" : [
                6.625
            ],
            "min" : [
                0.0
            ],
            "type" : "SCALAR"
        },
        {
            "bufferView" : 12,
            "componentType" : 5126,
            "count" : 160,
            "max" : [
                0.1796780377626419,
                0.999971866607666,
                0.2184019535779953,
                0.9798417687416077
            ],
            "min" : [
                -0.16930510103702545,
                -0.9978352189064026,
                -0.0363214947283268,
                -0.0073247263208031654
            ],
            "type" : "VEC4"
        },
        {
            "bufferView" : 13,
            "componentType" : 5126,
            "count" : 2,
            "max" : [
                6.625
            ],
            "min" : [
                0.0
            ],
            "type" : "SCALAR"
        },
        {
            "bufferView" : 14,
            "componentType" : 5126,
            "count" : 6,
            "max" : [
                1.0,
                1.0,
                1.0000001192092896
            ],
            "min" : [
                0.0,
                0.0,
                0.0
            ],
            "type" : "VEC3"
        }
    ],
    "animations" : [
        {
            "channels" : [
                {
                    "sampler" : 0,
                    "target" : {
                        "node" : 1,
                        "path" : "translation"
                    }
                },
                {
                    "sampler" : 1,
                    "target" : {
                        "node" : 1,
                        "path" : "rotation"
                    }
                },
                {
                    "sampler" : 2,
                    "target" : {
                        "node" : 1,
                        "path" : "scale"
                    }
                }
            ],
            "name" : "animation",
            "samplers" : [
                {
                    "input" : 9,
                    "interpolation" : "CUBICSPLINE",
                    "output" : 10
                },
                {
                    "input" : 11,
                    "interpolation" : "LINEAR",
                    "output" : 12
                },
                {
                    "input" : 13,
                    "interpolation" : "CUBICSPLINE",
                    "output" : 14
                }
            ]
        },
        {
            "channels" : [
                {
                    "sampler" : 0,
                    "target" : {
                        "node" : 1,
                        "path" : "translation"
                    }
                }
            ],
            "name" : "idle",
            "samplers" : [
                {
                    "input" : 7,
                    "interpolation" : "LINEAR",
                    "output" : 8
                }
            ]
        }
    ],
    "asset" : {
        "generator" : "Khronos Blender glTF 2.0 exporter",
        "version" : "2.0"
    },
    "bufferViews" : [
        {
            "buffer" : 0,
            "byteLength" : 3864,
            "byteOffset" : 0,
            "target" : 34963
        },
        {
            "buffer" : 0,
            "byteLength" : 5880,
            "byteOffset" : 3864,
            "target" : 34962
        },
        {
            "buffer" : 0,
            "byteLength" : 5880,
            "byteOffset" : 9744,
            "target" : 34962
        },
        {
            "buffer" : 0,
            "byteLength" : 7840,
            "byteOffset" : 15624,
            "target" : 34962
        },
        {
            "buffer" : 0,
            "byteLength" : 3920,
            "byteOffset" : 23464,
            "target" : 34962
        },
        {
            "buffer" : 0,
            "byteLength" : 3920,
            "byteOffset" : 27384,
            "target" : 34962
        },
        {
            "buffer" : 0,
            "byteLength" : 7840,
            "byteOffset" : 31304,
            "target" : 34962
        },
        {
            "buffer" : 0,
            "byteLength" : 160,
            "byteOffset" : 39144
        },
        {
            "buffer" : 0,
            "byteLength" : 480,
            "byteOffset" : 39304
        },
        {
            "buffer" : 0,
            "byteLength" : 640,
            "byteOffset" : 39784
        },
        {
            "buffer" : 0,
            "byteLength" : 5760,
            "byteOffset" : 40424
        },
        {
            "buffer" : 0,
            "byteLength" : 640,
            "byteOffset" : 46184
        },
        {
            "buffer" : 0,
            "byteLength" : 2560,
            "byteOffset" : 46824
        },
        {
            "buffer" : 0,
            "byteLength" : 8,
            "byteOffset" : 49384
        },
        {
            "buffer" : 0,
            "byteLength" : 72,
            "byteOffset" : 49392
        }
    ],
    "buffers" : [
        {
            "byteLength" : 49464,
            "uri" : "witch.bin"
        }
    ],
    "meshes" : [
        {
            "name" : "Witch",
            "primitives" : [
                {
                    "attributes" : {
                        "JOINTS_0" : 5,
                        "NORMAL" : 2,
                        "POSITION" : 1,
                        "TANGENT" : 3,
                        "TEXCOORD_0" : 4,
                        "WEIGHTS_0" : 6
                    },
                    "indices" : 0
                }
            ]
        }
    ],
    "nodes" : [
        {
            "mesh" : 0,
            "name" : "Witch",
            "rotation" : [
                1.4901161193847656e-08,
                -7.450580596923828e-09,
                -3.7252920748187535e-09,
                1.0
            ],
            "scale" : [
                1.0,
                1.0000001192092896,
                1.0
            ],
            "translation" : [
                0.25090694427490234,
                0.2007465362548828,
                0.9357888102531433
            ]
        },
        {
            "children" : [
                0
            ],
            "name" : "Witch_Empty",
            "rotation" : [
                0.0905490517616272,
                -0.1446027010679245,
                0.1460317075252533,
                0.9744566082954407
            ],
            "scale" : [
                0.9999998807907104,
                0.9999997615814209,
                0.9999998807907104
            ],
            "translation" : [
                -16.62497329711914,
                11.891040802001953,
                -2.471196413040161
            ]
        }
    ],
    "scene" : 0,
    "scenes" : [
        {
            "name" : "Scene",
            "nodes" : [
                1
            ]
        }
    ]
}
